<svg xmlns="http://www.w3.org/2000/svg" xml:space="preserve" width="380" height="380" fill="none" viewBox="0 0 380 380"><path fill="url(#a)" d="M160 338h176V72c0-16.568-13.431-30-30-30H70c-16.568 0-30 13.432-30 30v146c0 66.274 53.726 120 120 120" style="fill:url(#a);filter:url(#b)"/><defs><linearGradient id="a" x1="279" x2="-39.52" y1="296" y2="51.481" gradientTransform="translate(40 42)" gradientUnits="userSpaceOnUse"><stop offset=".186" stop-color="#3550EC"/><stop offset=".795" stop-color="#252B4B"/></linearGradient><filter id="b" width="1" height="1.037" x="0" y="0" style="color-interpolation-filters:sRGB"><feFlood flood-color="#000" flood-opacity=".286" result="flood"/><feGaussianBlur in="SourceGraphic" result="blur"/><feOffset dy="6" in="blur" result="offset"/><feComposite in="flood" in2="offset" operator="in" result="comp1"/><feComposite in="SourceGraphic" in2="comp1" result="fbSourceGraphic"/><feColorMatrix in="fbSourceGraphic" result="fbSourceGraphicAlpha" values="0 0 0 -1 0 0 0 0 -1 0 0 0 0 -1 0 0 0 0 1 0"/><feFlood flood-color="#FFF" flood-opacity=".286" result="flood"/><feGaussianBlur in="fbSourceGraphic" result="blur"/><feOffset dy="5" in="blur" result="offset"/><feComposite in="flood" in2="offset" operator="out" result="comp1"/><feComposite in="comp1" in2="fbSourceGraphic" operator="atop" result="comp2"/></filter></defs><g style="opacity:.5;fill:#999;fill-opacity:1"><path d="M12.805 8.25q0 .04-.008.055-.5 2.093-2.094 3.394T6.969 13q-1.14 0-2.207-.43t-1.903-1.226l-1.007 1.008q-.149.148-.352.148t-.352-.148T1 12V8.5q0-.203.148-.352Q1.297 8 1.5 8H5q.203 0 .352.148.148.149.148.352t-.148.352l-1.07 1.07q.554.515 1.257.797Q6.242 11 7 11q1.047 0 1.953-.508t1.453-1.398q.086-.133.414-.914.063-.18.235-.18h1.5q.101 0 .175.074.075.074.075.176M13 2v3.5q0 .203-.148.352Q12.703 6 12.5 6H9q-.203 0-.352-.148Q8.5 5.703 8.5 5.5t.148-.352L9.727 4.07Q8.57 3 7 3q-1.047 0-1.953.508T3.594 4.906q-.086.133-.414.914-.063.18-.235.18H1.391q-.102 0-.176-.074T1.14 5.75v-.055q.507-2.093 2.109-3.394T7 1q1.14 0 2.219.434 1.078.433 1.914 1.222l1.015-1.008q.149-.148.352-.148t.352.148T13 2" style="fill:#999;fill-opacity:1" transform="translate(95.352 95.352)scale(14.16393)"/></g><path d="M12.805 8.25q0 .04-.008.055-.5 2.093-2.094 3.394T6.969 13q-1.14 0-2.207-.43t-1.903-1.226l-1.007 1.008q-.149.148-.352.148t-.352-.148T1 12V8.5q0-.203.148-.352Q1.297 8 1.5 8H5q.203 0 .352.148.148.149.148.352t-.148.352l-1.07 1.07q.554.515 1.257.797Q6.242 11 7 11q1.047 0 1.953-.508t1.453-1.398q.086-.133.414-.914.063-.18.235-.18h1.5q.101 0 .175.074.075.074.075.176M13 2v3.5q0 .203-.148.352Q12.703 6 12.5 6H9q-.203 0-.352-.148Q8.5 5.703 8.5 5.5t.148-.352L9.727 4.07Q8.57 3 7 3q-1.047 0-1.953.508T3.594 4.906q-.086.133-.414.914-.063.18-.235.18H1.391q-.102 0-.176-.074T1.14 5.75v-.055q.507-2.093 2.109-3.394T7 1q1.14 0 2.219.434 1.078.433 1.914 1.222l1.015-1.008q.149-.148.352-.148t.352.148T13 2" style="fill:#ebedf7;fill-opacity:1" transform="translate(90.852 90.852)scale(14.16393)"/></svg>