<svg xmlns="http://www.w3.org/2000/svg" width="800" height="800" fill="#4285f4" aria-hidden="true" viewBox="0 0 14 14"><path d="M12.805 8.25q0 .04-.008.055-.5 2.093-2.094 3.394T6.969 13q-1.14 0-2.207-.43t-1.903-1.226l-1.007 1.008q-.149.148-.352.148t-.352-.148T1 12V8.5q0-.203.148-.352Q1.297 8 1.5 8H5q.203 0 .352.148.148.149.148.352t-.148.352l-1.07 1.07q.554.515 1.257.797Q6.242 11 7 11q1.047 0 1.953-.508t1.453-1.398q.086-.133.414-.914.063-.18.235-.18h1.5q.101 0 .175.074.075.074.075.176M13 2v3.5q0 .203-.148.352Q12.703 6 12.5 6H9q-.203 0-.352-.148Q8.5 5.703 8.5 5.5t.148-.352L9.727 4.07Q8.57 3 7 3q-1.047 0-1.953.508T3.594 4.906q-.086.133-.414.914-.063.18-.235.18H1.391q-.102 0-.176-.074T1.14 5.75v-.055q.507-2.093 2.109-3.394T7 1q1.14 0 2.219.434 1.078.433 1.914 1.222l1.015-1.008q.149-.148.352-.148t.352.148T13 2"/></svg>